<?xml version="1.0" encoding="utf-8"?>
<svg viewBox="0 0 355.83 293.797" xmlns="http://www.w3.org/2000/svg">
  <path d="M 53.231 80.126 L 43.601 80.126 L 43.601 60.776 L 53.771 60.776 C 57.111 60.776 59.564 61.323 61.131 62.416 C 62.698 63.509 63.481 65.399 63.481 68.086 C 63.481 70.233 62.884 71.839 61.691 72.906 C 60.664 73.819 59.004 74.386 56.711 74.606 C 55.738 74.699 54.578 74.746 53.231 74.746 L 53.231 80.126 Z M 53.231 68.926 L 53.231 71.806 L 54.051 71.806 C 54.271 71.806 54.458 71.733 54.611 71.586 C 54.758 71.439 54.831 71.243 54.831 70.996 L 54.831 69.706 C 54.831 69.466 54.758 69.276 54.611 69.136 C 54.458 68.996 54.271 68.926 54.051 68.926 L 53.231 68.926 ZM 83.444 80.126 L 74.154 80.126 L 73.984 77.126 L 72.274 77.126 L 72.104 80.126 L 63.284 80.126 C 63.47 77.066 63.854 73.926 64.434 70.706 C 65.014 67.486 65.547 65.026 66.034 63.326 L 66.734 60.776 L 80.004 60.776 C 80.21 61.449 80.47 62.383 80.784 63.576 C 81.104 64.769 81.57 67.063 82.184 70.456 C 82.804 73.843 83.224 77.066 83.444 80.126 Z M 73.594 70.186 L 72.694 70.186 L 72.474 74.556 L 73.784 74.556 L 73.594 70.186 ZM 94.896 74.466 L 94.276 74.466 L 94.276 80.126 L 84.646 80.126 L 84.646 60.776 L 94.816 60.776 C 98.156 60.776 100.609 61.323 102.176 62.416 C 103.743 63.509 104.526 65.399 104.526 68.086 C 104.526 70.119 103.863 71.623 102.536 72.596 C 103.656 74.589 104.506 77.099 105.086 80.126 L 95.876 80.126 C 95.729 78.239 95.469 76.579 95.096 75.146 L 94.896 74.466 Z M 94.276 68.926 L 94.276 72.206 L 95.096 72.206 C 95.316 72.206 95.503 72.129 95.656 71.976 C 95.803 71.829 95.876 71.633 95.876 71.386 L 95.876 69.706 C 95.876 69.466 95.803 69.276 95.656 69.136 C 95.503 68.996 95.316 68.926 95.096 68.926 L 94.276 68.926 ZM 109.285 68.926 L 105.925 68.926 L 105.925 60.776 L 123.175 60.776 L 123.175 68.926 L 119.755 68.926 L 119.755 80.126 L 109.285 80.126 L 109.285 68.926 ZM 140.365 75.566 L 140.365 80.126 L 129.865 80.126 L 129.865 75.566 C 129.345 75.339 128.982 75.179 128.775 75.086 C 128.569 74.993 128.235 74.796 127.775 74.496 C 127.322 74.196 126.982 73.889 126.755 73.576 C 126.142 72.736 125.752 71.699 125.585 70.466 L 124.375 60.776 L 134.285 60.776 L 134.985 70.356 L 135.605 70.356 L 136.195 60.776 L 145.855 60.776 L 144.645 70.466 C 144.479 71.699 144.089 72.736 143.475 73.576 C 143.249 73.889 142.909 74.196 142.455 74.496 C 141.995 74.796 141.662 74.993 141.455 75.086 C 141.249 75.179 140.885 75.339 140.365 75.566 Z" transform="matrix(2.857150077819824, 0, 0, 2.857150077819824, -92.15264892578125, -93.3030014038086)" style="fill: rgb(255, 255, 255); white-space: pre;"/>
  <path d="M 82.175 97.586 L 79.635 97.586 C 79.508 98.539 79.388 99.493 79.275 100.446 C 79.162 101.399 79.092 102.293 79.065 103.126 C 79.065 103.479 79.092 103.773 79.145 104.006 C 79.198 104.246 79.278 104.436 79.385 104.576 C 79.485 104.709 79.608 104.806 79.755 104.866 C 79.902 104.926 80.068 104.956 80.255 104.956 C 80.542 104.956 80.858 104.913 81.205 104.826 C 81.552 104.739 81.898 104.626 82.245 104.486 C 82.358 104.439 82.452 104.406 82.525 104.386 C 82.605 104.366 82.672 104.356 82.725 104.356 C 82.818 104.356 82.878 104.396 82.905 104.476 C 82.938 104.556 82.972 104.699 83.005 104.906 C 83.038 105.113 83.085 105.389 83.145 105.736 C 83.212 106.083 83.318 106.519 83.465 107.046 C 83.472 107.093 83.478 107.133 83.485 107.166 C 83.492 107.193 83.495 107.219 83.495 107.246 C 83.495 107.379 83.445 107.473 83.345 107.526 C 83.252 107.579 83.095 107.643 82.875 107.716 C 82.502 107.843 82.108 107.973 81.695 108.106 C 81.282 108.239 80.872 108.359 80.465 108.466 C 80.058 108.579 79.668 108.669 79.295 108.736 C 78.922 108.803 78.592 108.836 78.305 108.836 C 76.785 108.836 75.675 108.459 74.975 107.706 C 74.282 106.946 73.935 105.793 73.935 104.246 C 73.935 103.979 73.945 103.706 73.965 103.426 C 73.978 103.153 73.998 102.866 74.025 102.566 C 74.118 101.653 74.198 100.786 74.265 99.966 C 74.338 99.153 74.412 98.373 74.485 97.626 L 73.045 97.626 C 72.552 97.626 72.195 97.606 71.975 97.566 C 71.762 97.526 71.655 97.443 71.655 97.316 C 71.655 97.276 71.698 97.176 71.785 97.016 C 71.878 96.856 71.995 96.666 72.135 96.446 C 72.275 96.219 72.428 95.979 72.595 95.726 C 72.755 95.473 72.912 95.233 73.065 95.006 C 73.218 94.786 73.348 94.593 73.455 94.426 C 73.562 94.259 73.632 94.159 73.665 94.126 L 74.635 94.126 C 74.715 93.433 74.778 92.853 74.825 92.386 C 74.878 91.913 74.922 91.523 74.955 91.216 C 74.988 90.903 75.018 90.663 75.045 90.496 C 75.072 90.329 75.098 90.203 75.125 90.116 C 75.158 90.036 75.202 89.986 75.255 89.966 C 75.302 89.939 75.368 89.919 75.455 89.906 C 75.862 89.819 76.258 89.743 76.645 89.676 C 77.025 89.609 77.405 89.539 77.785 89.466 C 78.172 89.393 78.562 89.306 78.955 89.206 C 79.355 89.113 79.768 89.003 80.195 88.876 C 80.222 88.876 80.242 88.873 80.255 88.866 C 80.262 88.866 80.278 88.866 80.305 88.866 C 80.412 88.866 80.465 88.903 80.465 88.976 L 80.465 88.996 C 80.425 89.496 80.355 90.193 80.255 91.086 C 80.162 91.979 80.055 92.993 79.935 94.126 L 83.595 94.126 C 83.668 94.126 83.742 94.153 83.815 94.206 C 83.882 94.253 83.915 94.336 83.915 94.456 C 83.915 94.503 83.862 94.666 83.755 94.946 C 83.642 95.226 83.485 95.596 83.285 96.056 L 82.795 97.166 C 82.728 97.299 82.662 97.399 82.595 97.466 C 82.528 97.526 82.388 97.566 82.175 97.586 ZM 92.335 108.836 C 91.048 108.836 89.922 108.626 88.955 108.206 C 87.982 107.786 87.168 107.229 86.515 106.536 C 85.855 105.836 85.362 105.033 85.035 104.126 C 84.708 103.219 84.545 102.279 84.545 101.306 C 84.545 100.326 84.705 99.399 85.025 98.526 C 85.338 97.646 85.785 96.856 86.365 96.156 C 86.938 95.456 87.625 94.873 88.425 94.406 C 89.225 93.939 90.108 93.623 91.075 93.456 C 91.222 93.449 91.295 93.416 91.295 93.356 C 91.295 93.256 91.285 93.163 91.265 93.076 C 91.238 92.989 91.225 92.916 91.225 92.856 C 91.225 92.756 91.245 92.686 91.285 92.646 C 91.318 92.613 91.358 92.596 91.405 92.596 C 93.145 92.596 94.625 92.793 95.845 93.186 C 97.072 93.586 98.065 94.126 98.825 94.806 C 99.592 95.493 100.148 96.299 100.495 97.226 C 100.842 98.159 101.015 99.159 101.015 100.226 C 101.015 101.579 100.788 102.789 100.335 103.856 C 99.875 104.923 99.252 105.826 98.465 106.566 C 97.678 107.306 96.758 107.869 95.705 108.256 C 94.652 108.643 93.528 108.836 92.335 108.836 Z M 89.805 101.156 C 89.805 101.649 89.858 102.136 89.965 102.616 C 90.072 103.096 90.245 103.533 90.485 103.926 C 90.725 104.319 91.042 104.636 91.435 104.876 C 91.828 105.123 92.315 105.246 92.895 105.246 C 93.315 105.226 93.682 105.129 93.995 104.956 C 94.308 104.789 94.578 104.573 94.805 104.306 C 95.038 104.039 95.228 103.736 95.375 103.396 C 95.528 103.056 95.648 102.706 95.735 102.346 C 95.822 101.986 95.882 101.633 95.915 101.286 C 95.955 100.939 95.975 100.626 95.975 100.346 C 95.975 99.873 95.902 99.409 95.755 98.956 C 95.615 98.496 95.408 98.093 95.135 97.746 C 94.862 97.399 94.522 97.119 94.115 96.906 C 93.715 96.693 93.248 96.586 92.715 96.586 C 92.168 96.586 91.708 96.749 91.335 97.076 C 90.962 97.396 90.665 97.793 90.445 98.266 C 90.218 98.739 90.055 99.239 89.955 99.766 C 89.855 100.293 89.805 100.756 89.805 101.156 ZM 118.73 98.586 L 118.75 98.376 C 118.657 98.169 118.53 97.956 118.37 97.736 C 118.21 97.516 118.027 97.316 117.82 97.136 C 117.607 96.949 117.377 96.799 117.13 96.686 C 116.89 96.573 116.63 96.516 116.35 96.516 C 115.977 96.516 115.627 96.673 115.3 96.986 C 114.973 97.293 114.687 97.703 114.44 98.216 C 114.193 98.736 114 99.326 113.86 99.986 C 113.72 100.646 113.65 101.333 113.65 102.046 C 113.65 102.479 113.687 102.889 113.76 103.276 C 113.84 103.663 113.963 104.003 114.13 104.296 C 114.29 104.589 114.5 104.823 114.76 104.996 C 115.02 105.169 115.333 105.256 115.7 105.256 C 116.247 105.256 116.747 105.086 117.2 104.746 C 117.66 104.399 118.047 103.953 118.36 103.406 C 118.373 103.219 118.39 102.993 118.41 102.726 C 118.423 102.459 118.443 102.139 118.47 101.766 C 118.503 101.386 118.54 100.939 118.58 100.426 C 118.62 99.906 118.67 99.293 118.73 98.586 Z M 124.68 93.726 L 123.27 106.636 C 123.183 107.536 122.98 108.379 122.66 109.166 C 122.34 109.946 121.937 110.663 121.45 111.316 C 120.963 111.969 120.407 112.553 119.78 113.066 C 119.153 113.579 118.493 114.016 117.8 114.376 C 117.1 114.729 116.38 114.999 115.64 115.186 C 114.907 115.373 114.18 115.466 113.46 115.466 C 113.073 115.466 112.68 115.453 112.28 115.426 C 111.88 115.399 111.487 115.346 111.1 115.266 C 110.72 115.193 110.357 115.086 110.01 114.946 C 109.663 114.799 109.353 114.619 109.08 114.406 L 109.08 114.386 C 109.08 114.339 109.113 114.179 109.18 113.906 C 109.253 113.633 109.337 113.313 109.43 112.946 C 109.523 112.579 109.623 112.199 109.73 111.806 C 109.837 111.413 109.927 111.076 110 110.796 C 110.033 110.663 110.07 110.576 110.11 110.536 C 110.143 110.489 110.183 110.466 110.23 110.466 C 110.283 110.466 110.317 110.469 110.33 110.476 C 110.59 110.649 110.837 110.793 111.07 110.906 C 111.303 111.019 111.55 111.113 111.81 111.186 C 112.07 111.253 112.353 111.299 112.66 111.326 C 112.973 111.353 113.333 111.366 113.74 111.366 C 114.38 111.366 114.947 111.243 115.44 110.996 C 115.933 110.749 116.357 110.429 116.71 110.036 C 117.063 109.649 117.347 109.219 117.56 108.746 C 117.78 108.279 117.93 107.816 118.01 107.356 C 117.35 107.796 116.683 108.153 116.01 108.426 C 115.337 108.699 114.66 108.836 113.98 108.836 C 113.04 108.836 112.227 108.646 111.54 108.266 C 110.86 107.893 110.297 107.386 109.85 106.746 C 109.403 106.106 109.073 105.373 108.86 104.546 C 108.64 103.726 108.53 102.863 108.53 101.956 C 108.53 101.249 108.597 100.533 108.73 99.806 C 108.863 99.079 109.06 98.379 109.32 97.706 C 109.58 97.033 109.9 96.403 110.28 95.816 C 110.667 95.229 111.11 94.716 111.61 94.276 C 112.11 93.836 112.667 93.493 113.28 93.246 C 113.887 92.993 114.55 92.866 115.27 92.866 C 116.057 92.866 116.787 93.039 117.46 93.386 C 118.127 93.733 118.733 94.163 119.28 94.676 C 119.3 94.509 119.313 94.379 119.32 94.286 C 119.333 94.186 119.357 94.109 119.39 94.056 C 119.423 94.003 119.483 93.963 119.57 93.936 C 119.657 93.909 119.783 93.876 119.95 93.836 C 120.05 93.823 120.233 93.786 120.5 93.726 C 120.76 93.666 121.073 93.593 121.44 93.506 C 121.807 93.426 122.207 93.339 122.64 93.246 C 123.08 93.159 123.523 93.066 123.97 92.966 C 124.077 92.939 124.177 92.926 124.27 92.926 C 124.55 92.926 124.69 93.106 124.69 93.466 C 124.69 93.513 124.69 93.556 124.69 93.596 C 124.69 93.643 124.687 93.686 124.68 93.726 ZM 134.004 108.836 C 132.717 108.836 131.59 108.626 130.624 108.206 C 129.65 107.786 128.837 107.229 128.184 106.536 C 127.524 105.836 127.03 105.033 126.704 104.126 C 126.377 103.219 126.214 102.279 126.214 101.306 C 126.214 100.326 126.374 99.399 126.694 98.526 C 127.007 97.646 127.454 96.856 128.034 96.156 C 128.607 95.456 129.294 94.873 130.094 94.406 C 130.894 93.939 131.777 93.623 132.744 93.456 C 132.89 93.449 132.964 93.416 132.964 93.356 C 132.964 93.256 132.954 93.163 132.934 93.076 C 132.907 92.989 132.894 92.916 132.894 92.856 C 132.894 92.756 132.914 92.686 132.954 92.646 C 132.987 92.613 133.027 92.596 133.074 92.596 C 134.814 92.596 136.294 92.793 137.514 93.186 C 138.74 93.586 139.734 94.126 140.494 94.806 C 141.26 95.493 141.817 96.299 142.164 97.226 C 142.51 98.159 142.684 99.159 142.684 100.226 C 142.684 101.579 142.457 102.789 142.004 103.856 C 141.544 104.923 140.92 105.826 140.134 106.566 C 139.347 107.306 138.427 107.869 137.374 108.256 C 136.32 108.643 135.197 108.836 134.004 108.836 Z M 131.474 101.156 C 131.474 101.649 131.527 102.136 131.634 102.616 C 131.74 103.096 131.914 103.533 132.154 103.926 C 132.394 104.319 132.71 104.636 133.104 104.876 C 133.497 105.123 133.984 105.246 134.564 105.246 C 134.984 105.226 135.35 105.129 135.664 104.956 C 135.977 104.789 136.247 104.573 136.474 104.306 C 136.707 104.039 136.897 103.736 137.044 103.396 C 137.197 103.056 137.317 102.706 137.404 102.346 C 137.49 101.986 137.55 101.633 137.584 101.286 C 137.624 100.939 137.644 100.626 137.644 100.346 C 137.644 99.873 137.57 99.409 137.424 98.956 C 137.284 98.496 137.077 98.093 136.804 97.746 C 136.53 97.399 136.19 97.119 135.784 96.906 C 135.384 96.693 134.917 96.586 134.384 96.586 C 133.837 96.586 133.377 96.749 133.004 97.076 C 132.63 97.396 132.334 97.793 132.114 98.266 C 131.887 98.739 131.724 99.239 131.624 99.766 C 131.524 100.293 131.474 100.756 131.474 101.156 Z" transform="matrix(2.857150077819824, 0, 0, 2.857150077819824, -92.15264892578125, -93.3030014038086)" style="fill: rgb(255, 255, 255); white-space: pre;"/>
</svg>